<svg width="176" height="93" viewBox="0 0 176 93" fill="none" xmlns="http://www.w3.org/2000/svg">
<path d="M83.6576 56.196C82.2202 56.196 80.9322 55.9627 79.7936 55.496C78.6549 55.0293 77.7402 54.3387 77.0496 53.424C76.3776 52.5093 76.0229 51.408 75.9856 50.12H81.0816C81.1562 50.848 81.4082 51.408 81.8376 51.8C82.2669 52.1733 82.8269 52.36 83.5176 52.36C84.2269 52.36 84.7869 52.2013 85.1976 51.884C85.6082 51.548 85.8136 51.0907 85.8136 50.512C85.8136 50.0267 85.6456 49.6253 85.3096 49.308C84.9922 48.9907 84.5909 48.7293 84.1056 48.524C83.6389 48.3187 82.9669 48.0853 82.0896 47.824C80.8202 47.432 79.7842 47.04 78.9816 46.648C78.1789 46.256 77.4882 45.6773 76.9096 44.912C76.3309 44.1467 76.0416 43.148 76.0416 41.916C76.0416 40.0867 76.7042 38.6587 78.0296 37.632C79.3549 36.5867 81.0816 36.064 83.2096 36.064C85.3749 36.064 87.1202 36.5867 88.4456 37.632C89.7709 38.6587 90.4802 40.096 90.5736 41.944H85.3936C85.3562 41.3093 85.1229 40.8147 84.6936 40.46C84.2642 40.0867 83.7136 39.9 83.0416 39.9C82.4629 39.9 81.9962 40.0587 81.6416 40.376C81.2869 40.6747 81.1096 41.1133 81.1096 41.692C81.1096 42.3267 81.4082 42.8213 82.0056 43.176C82.6029 43.5307 83.5362 43.9133 84.8056 44.324C86.0749 44.7533 87.1016 45.164 87.8856 45.556C88.6882 45.948 89.3789 46.5173 89.9576 47.264C90.5362 48.0107 90.8256 48.972 90.8256 50.148C90.8256 51.268 90.5362 52.2853 89.9576 53.2C89.3976 54.1147 88.5762 54.8427 87.4936 55.384C86.4109 55.9253 85.1322 56.196 83.6576 56.196ZM98.5601 36.344V56H93.7721V36.344H98.5601ZM115.078 42.56C114.723 41.9067 114.21 41.412 113.538 41.076C112.885 40.7213 112.11 40.544 111.214 40.544C109.665 40.544 108.423 41.0573 107.49 42.084C106.557 43.092 106.09 44.4453 106.09 46.144C106.09 47.9547 106.575 49.3733 107.546 50.4C108.535 51.408 109.889 51.912 111.606 51.912C112.782 51.912 113.771 51.6133 114.574 51.016C115.395 50.4187 115.993 49.56 116.366 48.44H110.29V44.912H120.706V49.364C120.351 50.5587 119.745 51.6693 118.886 52.696C118.046 53.7227 116.973 54.5533 115.666 55.188C114.359 55.8227 112.885 56.14 111.242 56.14C109.301 56.14 107.565 55.72 106.034 54.88C104.522 54.0213 103.337 52.836 102.478 51.324C101.638 49.812 101.218 48.0853 101.218 46.144C101.218 44.2027 101.638 42.476 102.478 40.964C103.337 39.4333 104.522 38.248 106.034 37.408C107.546 36.5493 109.273 36.12 111.214 36.12C113.566 36.12 115.545 36.6893 117.15 37.828C118.774 38.9667 119.847 40.544 120.37 42.56H115.078ZM141.81 36.344L134.838 56H128.846L121.874 36.344H126.97L131.842 51.184L136.742 36.344H141.81ZM148.599 40.18V44.156H155.011V47.852H148.599V52.164H155.851V56H143.811V36.344H155.851V40.18H148.599ZM173.94 42.672C173.94 43.8107 173.678 44.856 173.156 45.808C172.633 46.7413 171.83 47.4973 170.748 48.076C169.665 48.6547 168.321 48.944 166.716 48.944H163.748V56H158.96V36.344H166.716C168.284 36.344 169.609 36.6147 170.692 37.156C171.774 37.6973 172.586 38.444 173.128 39.396C173.669 40.348 173.94 41.44 173.94 42.672ZM166.352 45.136C167.266 45.136 167.948 44.9213 168.396 44.492C168.844 44.0627 169.068 43.456 169.068 42.672C169.068 41.888 168.844 41.2813 168.396 40.852C167.948 40.4227 167.266 40.208 166.352 40.208H163.748V45.136H166.352Z" fill="white"/>
<path d="M15.7867 61.2778C15.7867 61.2778 18.407 52.3887 15.7867 47.8295C13.1343 43.2146 3.9463 41.0072 3.9463 41.0072V54.4555L15.7867 61.2778ZM19.7334 61.2778L31.5738 54.4555V41.0072C31.5738 41.0072 22.3858 43.2146 19.7334 47.8295C17.1131 52.3887 19.7334 61.2778 19.7334 61.2778ZM17.7601 44.4429C23.0342 44.4429 29.4524 37.7188 29.4524 37.7188L17.7601 30.9946L6.0677 37.7188C6.0677 37.7188 12.4859 44.4429 17.7601 44.4429ZM1.97291 57.8912C1.348 57.5313 0.862871 57.0568 0.517528 56.4678C0.172184 55.8789 -0.000488281 55.2244 -0.000488281 54.5046V38.8967C-0.000488281 38.1769 0.172184 37.5224 0.517528 36.9335C0.862871 36.3445 1.348 35.87 1.97291 35.5101L15.7867 27.608C16.4116 27.2481 17.0694 27.0681 17.7601 27.0681C18.4507 27.0681 19.1085 27.2481 19.7334 27.608L33.5472 35.5101C34.1721 35.87 34.6572 36.3445 35.0026 36.9335C35.3479 37.5224 35.5206 38.1769 35.5206 38.8967V54.5046C35.5206 55.2244 35.3479 55.8789 35.0026 56.4678C34.6572 57.0568 34.1721 57.5313 33.5472 57.8912L19.7334 65.7933C19.1085 66.1532 18.4507 66.3332 17.7601 66.3332C17.0694 66.3332 16.4116 66.1532 15.7867 65.7933L1.97291 57.8912Z" fill="white"/>
<path d="M47.4288 60.8767C47.4288 60.8767 50.0491 51.9876 47.4288 47.4284C44.7764 42.8135 35.5884 40.6061 35.5884 40.6061V54.0544L47.4288 60.8767ZM51.3755 60.8767L63.2159 54.0544V40.6061C63.2159 40.6061 54.0279 42.8135 51.3755 47.4284C48.7552 51.9876 51.3755 60.8767 51.3755 60.8767ZM49.4021 44.0418C54.6763 44.0418 61.0945 37.3176 61.0945 37.3176L49.4021 30.5935L37.7098 37.3176C37.7098 37.3176 44.128 44.0418 49.4021 44.0418ZM33.615 57.4901C32.9901 57.1301 32.505 56.6557 32.1596 56.0667C31.8143 55.4777 31.6416 54.8233 31.6416 54.1035V38.4956C31.6416 37.7757 31.8143 37.1213 32.1596 36.5323C32.505 35.9434 32.9901 35.4689 33.615 35.109L47.4288 27.2069C48.0537 26.847 48.7115 26.667 49.4021 26.667C50.0928 26.667 50.7506 26.847 51.3755 27.2069L65.1893 35.109C65.8142 35.4689 66.2993 35.9434 66.6447 36.5323C66.99 37.1213 67.1627 37.7757 67.1627 38.4956V54.1035C67.1627 54.8233 66.99 55.4777 66.6447 56.0667C66.2993 56.6557 65.8142 57.1301 65.1893 57.4901L51.3755 65.3922C50.7506 65.7521 50.0928 65.9321 49.4021 65.9321C48.7115 65.9321 48.0537 65.7521 47.4288 65.3922L33.615 57.4901Z" fill="white"/>
<path d="M31.9092 87.9446C31.9092 87.9446 34.5296 79.0555 31.9092 74.4963C29.2568 69.8814 20.0689 67.674 20.0689 67.674V81.1222L31.9092 87.9446ZM35.856 87.9446L47.6964 81.1222V67.674C47.6964 67.674 38.5084 69.8814 35.856 74.4963C33.2356 79.0555 35.856 87.9446 35.856 87.9446ZM33.8826 71.1097C39.1568 71.1097 45.575 64.3855 45.575 64.3855L33.8826 57.6614L22.1903 64.3855C22.1903 64.3855 28.6085 71.1097 33.8826 71.1097ZM18.0955 84.5579C17.4706 84.198 16.9854 83.7236 16.6401 83.1346C16.2947 82.5456 16.1221 81.8912 16.1221 81.1713V65.5635C16.1221 64.8436 16.2947 64.1892 16.6401 63.6002C16.9854 63.0112 17.4706 62.5368 18.0955 62.1769L31.9092 54.2748C32.5341 53.9148 33.1919 53.7349 33.8826 53.7349C34.5733 53.7349 35.2311 53.9148 35.856 54.2748L49.6698 62.1769C50.2947 62.5368 50.7798 63.0112 51.1251 63.6002C51.4705 64.1892 51.6432 64.8436 51.6432 65.5635V81.1713C51.6432 81.8912 51.4705 82.5456 51.1251 83.1346C50.7798 83.7236 50.2947 84.198 49.6698 84.5579L35.856 92.46C35.2311 92.82 34.5733 92.9999 33.8826 92.9999C33.1919 92.9999 32.5341 92.82 31.9092 92.46L18.0955 84.5579Z" fill="white"/>
<path d="M31.3057 34.2097C31.3057 34.2097 33.9261 25.3206 31.3057 20.7614C28.6533 16.1465 19.4653 13.9391 19.4653 13.9391V27.3874L31.3057 34.2097ZM35.2525 34.2097L47.0929 27.3874V13.9391C47.0929 13.9391 37.9049 16.1465 35.2525 20.7614C32.6321 25.3206 35.2525 34.2097 35.2525 34.2097ZM33.2791 17.3748C38.5533 17.3748 44.9715 10.6507 44.9715 10.6507L33.2791 3.92651L21.5867 10.6507C21.5867 10.6507 28.0049 17.3748 33.2791 17.3748ZM17.4919 30.8231C16.867 30.4631 16.3819 29.9887 16.0366 29.3997C15.6912 28.8107 15.5186 28.1563 15.5186 27.4365V11.8286C15.5186 11.1087 15.6912 10.4543 16.0366 9.86535C16.3819 9.27637 16.867 8.80192 17.4919 8.44199L31.3057 0.539895C31.9306 0.179965 32.5884 0 33.2791 0C33.9698 0 34.6276 0.179965 35.2525 0.539895L49.0662 8.44199C49.6912 8.80192 50.1763 9.27637 50.5216 9.86535C50.867 10.4543 51.0396 11.1087 51.0396 11.8286V27.4365C51.0396 28.1563 50.867 28.8107 50.5216 29.3997C50.1763 29.9887 49.6912 30.4631 49.0662 30.8231L35.2525 38.7252C34.6276 39.0851 33.9698 39.2651 33.2791 39.2651C32.5884 39.2651 31.9306 39.0851 31.3057 38.7252L17.4919 30.8231Z" fill="white"/>
</svg>
