<svg width="132" height="189" viewBox="0 0 132 189" fill="none" xmlns="http://www.w3.org/2000/svg">
<path d="M13.1631 188.752C11.3151 188.752 9.65911 188.452 8.19511 187.852C6.73111 187.252 5.55511 186.364 4.66711 185.188C3.80311 184.012 3.34711 182.596 3.29911 180.94H9.85111C9.94711 181.876 10.2711 182.596 10.8231 183.1C11.3751 183.58 12.0951 183.82 12.9831 183.82C13.8951 183.82 14.6151 183.616 15.1431 183.208C15.6711 182.776 15.9351 182.188 15.9351 181.444C15.9351 180.82 15.7191 180.304 15.2871 179.896C14.8791 179.488 14.3631 179.152 13.7391 178.888C13.1391 178.624 12.2751 178.324 11.1471 177.988C9.51511 177.484 8.18311 176.98 7.15111 176.476C6.11911 175.972 5.23111 175.228 4.48711 174.244C3.74311 173.26 3.37111 171.976 3.37111 170.392C3.37111 168.04 4.22311 166.204 5.92711 164.884C7.63111 163.54 9.85111 162.868 12.5871 162.868C15.3711 162.868 17.6151 163.54 19.3191 164.884C21.0231 166.204 21.9351 168.052 22.0551 170.428H15.3951C15.3471 169.612 15.0471 168.976 14.4951 168.52C13.9431 168.04 13.2351 167.8 12.3711 167.8C11.6271 167.8 11.0271 168.004 10.5711 168.412C10.1151 168.796 9.88711 169.36 9.88711 170.104C9.88711 170.92 10.2711 171.556 11.0391 172.012C11.8071 172.468 13.0071 172.96 14.6391 173.488C16.2711 174.04 17.5911 174.568 18.5991 175.072C19.6311 175.576 20.5191 176.308 21.2631 177.268C22.0071 178.228 22.3791 179.464 22.3791 180.976C22.3791 182.416 22.0071 183.724 21.2631 184.9C20.5431 186.076 19.4871 187.012 18.0951 187.708C16.7031 188.404 15.0591 188.752 13.1631 188.752ZM32.3235 163.228V188.5H26.1675V163.228H32.3235ZM53.5607 171.22C53.1047 170.38 52.4447 169.744 51.5807 169.312C50.7407 168.856 49.7447 168.628 48.5927 168.628C46.6007 168.628 45.0047 169.288 43.8047 170.608C42.6047 171.904 42.0047 173.644 42.0047 175.828C42.0047 178.156 42.6287 179.98 43.8767 181.3C45.1487 182.596 46.8887 183.244 49.0967 183.244C50.6087 183.244 51.8807 182.86 52.9127 182.092C53.9687 181.324 54.7367 180.22 55.2167 178.78H47.4047V174.244H60.7967V179.968C60.3407 181.504 59.5607 182.932 58.4567 184.252C57.3767 185.572 55.9967 186.64 54.3167 187.456C52.6367 188.272 50.7407 188.68 48.6287 188.68C46.1327 188.68 43.9007 188.14 41.9327 187.06C39.9887 185.956 38.4647 184.432 37.3607 182.488C36.2807 180.544 35.7407 178.324 35.7407 175.828C35.7407 173.332 36.2807 171.112 37.3607 169.168C38.4647 167.2 39.9887 165.676 41.9327 164.596C43.8767 163.492 46.0967 162.94 48.5927 162.94C51.6167 162.94 54.1607 163.672 56.2247 165.136C58.3127 166.6 59.6927 168.628 60.3647 171.22H53.5607ZM87.9306 163.228L78.9666 188.5H71.2626L62.2986 163.228H68.8506L75.1146 182.308L81.4146 163.228H87.9306ZM96.6595 168.16V173.272H104.903V178.024H96.6595V183.568H105.983V188.5H90.5035V163.228H105.983V168.16H96.6595ZM129.24 171.364C129.24 172.828 128.904 174.172 128.232 175.396C127.56 176.596 126.528 177.568 125.136 178.312C123.744 179.056 122.016 179.428 119.952 179.428H116.136V188.5H109.98V163.228H119.952C121.968 163.228 123.672 163.576 125.064 164.272C126.456 164.968 127.5 165.928 128.196 167.152C128.892 168.376 129.24 169.78 129.24 171.364ZM119.484 174.532C120.66 174.532 121.536 174.256 122.112 173.704C122.688 173.152 122.976 172.372 122.976 171.364C122.976 170.356 122.688 169.576 122.112 169.024C121.536 168.472 120.66 168.196 119.484 168.196H116.136V174.532H119.484Z" fill="white"/>
<path d="M38.2792 97.8467C38.2792 97.8467 42.4419 83.6528 38.2792 76.3728C34.0657 69.0039 19.47 65.4791 19.47 65.4791V86.953L38.2792 97.8467ZM44.549 97.8467L63.3583 86.953V65.4791C63.3583 65.4791 48.7625 69.0039 44.549 76.3728C40.3863 83.6528 44.549 97.8467 44.549 97.8467ZM41.4141 70.9651C49.7925 70.9651 59.9883 60.2282 59.9883 60.2282L41.4141 49.4912L22.84 60.2282C22.84 60.2282 33.0357 70.9651 41.4141 70.9651ZM16.3351 92.4391C15.3424 91.8643 14.5717 91.1067 14.0231 90.1663C13.4745 89.2258 13.2002 88.1809 13.2002 87.0314V62.1091C13.2002 60.9596 13.4745 59.9147 14.0231 58.9742C14.5717 58.0337 15.3424 57.2762 16.3351 56.7014L38.2792 44.0835C39.272 43.5088 40.3169 43.2214 41.4141 43.2214C42.5113 43.2214 43.5563 43.5088 44.549 44.0835L66.4932 56.7014C67.4859 57.2762 68.2565 58.0337 68.8051 58.9742C69.3538 59.9147 69.6281 60.9596 69.6281 62.1091V87.0314C69.6281 88.1809 69.3538 89.2258 68.8051 90.1663C68.2565 91.1067 67.4859 91.8643 66.4932 92.4391L44.549 105.057C43.5563 105.632 42.5113 105.919 41.4141 105.919C40.3169 105.919 39.272 105.632 38.2792 105.057L16.3351 92.4391Z" fill="white"/>
<path d="M88.5444 97.2064C88.5444 97.2064 92.707 83.0125 88.5444 75.7324C84.3309 68.3635 69.7351 64.8387 69.7351 64.8387V86.3126L88.5444 97.2064ZM94.8141 97.2064L113.623 86.3126V64.8387C113.623 64.8387 99.0276 68.3635 94.8141 75.7324C90.6515 83.0125 94.8141 97.2064 94.8141 97.2064ZM91.6793 70.3248C100.058 70.3248 110.253 59.5878 110.253 59.5878L91.6793 48.8508L73.1051 59.5878C73.1051 59.5878 83.3009 70.3248 91.6793 70.3248ZM66.6002 91.7987C65.6075 91.224 64.8368 90.4664 64.2882 89.5259C63.7396 88.5854 63.4653 87.5405 63.4653 86.391V61.4687C63.4653 60.3193 63.7396 59.2743 64.2882 58.3338C64.8368 57.3934 65.6075 56.6358 66.6002 56.061L88.5444 43.4431C89.5371 42.8684 90.5821 42.5811 91.6793 42.5811C92.7765 42.5811 93.8214 42.8684 94.8141 43.4431L116.758 56.061C117.751 56.6358 118.522 57.3934 119.07 58.3338C119.619 59.2743 119.893 60.3193 119.893 61.4687V86.391C119.893 87.5405 119.619 88.5854 119.07 89.5259C118.522 90.4664 117.751 91.224 116.758 91.7987L94.8141 104.417C93.8214 104.991 92.7765 105.279 91.6793 105.279C90.5821 105.279 89.5371 104.991 88.5444 104.417L66.6002 91.7987Z" fill="white"/>
<path d="M63.892 140.428C63.892 140.428 68.0547 126.234 63.892 118.954C59.6785 111.585 45.0828 108.06 45.0828 108.06V129.534L63.892 140.428ZM70.1618 140.428L88.9711 129.534V108.06C88.9711 108.06 74.3753 111.585 70.1618 118.954C65.9991 126.234 70.1618 140.428 70.1618 140.428ZM67.0269 113.546C75.4053 113.546 85.6011 102.809 85.6011 102.809L67.0269 92.0723L48.4527 102.809C48.4527 102.809 58.6485 113.546 67.0269 113.546ZM41.9479 135.02C40.9552 134.445 40.1845 133.688 39.6359 132.747C39.0873 131.807 38.813 130.762 38.813 129.612V104.69C38.813 103.541 39.0873 102.496 39.6359 101.555C40.1845 100.615 40.9552 99.8572 41.9479 99.2825L63.892 86.6646C64.8848 86.0899 65.9297 85.8025 67.0269 85.8025C68.1241 85.8025 69.1691 86.0899 70.1618 86.6646L92.106 99.2825C93.0987 99.8572 93.8693 100.615 94.4179 101.555C94.9665 102.496 95.2408 103.541 95.2408 104.69V129.612C95.2408 130.762 94.9665 131.807 94.4179 132.747C93.8693 133.688 93.0987 134.445 92.106 135.02L70.1618 147.638C69.1691 148.213 68.1241 148.5 67.0269 148.5C65.9297 148.5 64.8848 148.213 63.892 147.638L41.9479 135.02Z" fill="white"/>
<path d="M62.9316 54.6253C62.9316 54.6253 67.0942 40.4314 62.9316 33.1514C58.7181 25.7824 44.1223 22.2577 44.1223 22.2577V43.7316L62.9316 54.6253ZM69.2014 54.6253L88.0106 43.7316V22.2577C88.0106 22.2577 73.4148 25.7824 69.2014 33.1514C65.0387 40.4314 69.2014 54.6253 69.2014 54.6253ZM66.0665 27.7437C74.4449 27.7437 84.6406 17.0067 84.6406 17.0067L66.0665 6.26976L47.4923 17.0067C47.4923 17.0067 57.6881 27.7437 66.0665 27.7437ZM40.9874 49.2176C39.9947 48.6429 39.224 47.8853 38.6754 46.9448C38.1268 46.0044 37.8525 44.9594 37.8525 43.81V18.8877C37.8525 17.7382 38.1268 16.6932 38.6754 15.7528C39.224 14.8123 39.9947 14.0547 40.9874 13.48L62.9316 0.862092C63.9243 0.287364 64.9693 0 66.0665 0C67.1637 0 68.2086 0.287364 69.2014 0.862092L91.1455 13.48C92.1382 14.0547 92.9089 14.8123 93.4575 15.7528C94.0061 16.6932 94.2804 17.7382 94.2804 18.8877V43.81C94.2804 44.9594 94.0061 46.0044 93.4575 46.9448C92.9089 47.8853 92.1382 48.6429 91.1455 49.2176L69.2014 61.8355C68.2086 62.4103 67.1637 62.6976 66.0665 62.6976C64.9693 62.6976 63.9243 62.4103 62.9316 61.8355L40.9874 49.2176Z" fill="white"/>
</svg>
